<svg xmlns="http://www.w3.org/2000/svg" viewBox="0 0 311.87 104.96"><defs><style>.cls-1{fill:#f2f2f2;}.cls-2{fill:#cc7f00;}</style></defs><g id="Layer_2" data-name="Layer 2"><g id="Layer_1-2" data-name="Layer 1"><path class="cls-1" d="M105.83,2.49v72q0,13.47-8.12,22t-21,8.5Q61.15,105,53,90.82,47.9,98.44,42.11,101.7T27.83,105q-13.47,0-20.65-8.5T0,72V2.49H29.74v65c0,3.22.25,5.35.77,6.37s1.54,1.54,3.11,1.54Q38,75.44,38,68V2.49H67.75v65q0,4.68.8,6.3a3.19,3.19,0,0,0,3.15,1.61q4.39,0,4.4-7.91v-65Z"/><path class="cls-2" d="M121.8,102.47V30.4q0-13.41,8.13-21.9T151,0q15.38,0,23.65,14.14,5.06-7.62,10.84-10.88T199.81,0q13.47,0,20.65,8.5T227.64,33v69.51H197.9v-65c0-3.23-.26-5.36-.77-6.41A3.11,3.11,0,0,0,194,29.44q-4.4,0-4.4,7.47v65.56H159.89v-65c0-3.18-.27-5.3-.81-6.38a3.19,3.19,0,0,0-3.15-1.61q-4.4,0-4.39,8v65Z"/><path class="cls-2" d="M289.16,31.2v71.27H259.42V31.2H236.65V2.49h75.22V31.2Z"/></g></g></svg>